<svg width="36" height="36" viewBox="0 0 36 36" fill="none" xmlns="http://www.w3.org/2000/svg">
<path d="M1.12543 0H10.1254C10.4981 0 10.8496 0.189844 11.0606 0.499219L16.7629 9.04922C13.2825 9.3375 10.1536 10.8492 7.79105 13.1484L0.190272 1.75078C-0.0417595 1.40625 -0.0628533 0.963281 0.134022 0.597656C0.330897 0.232031 0.710584 0 1.12543 0ZM35.8106 1.75078L28.2098 13.1555C25.8543 10.8563 22.7184 9.34453 19.2379 9.05625L24.9403 0.499219C25.1512 0.182812 25.5028 0 25.8754 0H34.8754C35.2903 0 35.67 0.225 35.8668 0.597656C36.0637 0.970313 36.0426 1.40625 35.8106 1.75078ZM30.3754 23.625C30.3754 30.4594 24.8348 36 18.0004 36C11.1661 36 5.62543 30.4594 5.62543 23.625C5.62543 16.7906 11.1661 11.25 18.0004 11.25C24.8348 11.25 30.3754 16.7906 30.3754 23.625ZM18.5911 16.9523C18.352 16.4602 17.6559 16.4602 17.4098 16.9523L15.8348 20.1445C15.7364 20.3414 15.5536 20.475 15.3426 20.5031L11.8129 21.0164C11.2715 21.0938 11.0606 21.7547 11.4473 22.1414L13.9996 24.6305C14.1543 24.7852 14.2246 24.9961 14.1895 25.2141L13.5848 28.7227C13.4934 29.257 14.0559 29.6719 14.5411 29.4187L17.6911 27.7594C17.8809 27.6609 18.1129 27.6609 18.3028 27.7594L21.4528 29.4187C21.9379 29.6719 22.5004 29.2641 22.409 28.7227L21.8043 25.2141C21.7692 25.0031 21.8395 24.7852 21.9942 24.6305L24.5465 22.1414C24.9403 21.7617 24.7223 21.1008 24.1809 21.0164L20.6582 20.5031C20.4473 20.475 20.2575 20.3344 20.1661 20.1445L18.5911 16.9523Z" fill="#4BCC9D"/>
</svg>
