<svg width="36" height="36" viewBox="0 0 36 36" fill="none" xmlns="http://www.w3.org/2000/svg">
<path d="M15 7.5L18 4.5M12 24L24 12M18 31.5L21 28.5M24.75 28.5C25.7446 28.5 26.6984 28.1049 27.4017 27.4017C28.1049 26.6984 28.5 25.7446 28.5 24.75C28.5 23.7554 28.1049 22.8016 27.4017 22.0983C26.6984 21.3951 25.7446 21 24.75 21C23.7554 21 22.8016 21.3951 22.0983 22.0983C21.3951 22.8016 21 23.7554 21 24.75C21 25.7446 21.3951 26.6984 22.0983 27.4017C22.8016 28.1049 23.7554 28.5 24.75 28.5V28.5ZM11.25 15C12.2446 15 13.1984 14.6049 13.9017 13.9017C14.6049 13.1984 15 12.2446 15 11.25C15 10.2554 14.6049 9.30161 13.9017 8.59835C13.1984 7.89509 12.2446 7.5 11.25 7.5C10.2554 7.5 9.30161 7.89509 8.59835 8.59835C7.89509 9.30161 7.5 10.2554 7.5 11.25C7.5 12.2446 7.89509 13.1984 8.59835 13.9017C9.30161 14.6049 10.2554 15 11.25 15V15ZM8.25 31.5C9.24456 31.5 10.1984 31.1049 10.9017 30.4017C11.6049 29.6984 12 28.7446 12 27.75C12 26.7554 11.6049 25.8016 10.9017 25.0983C10.1984 24.3951 9.24456 24 8.25 24C7.25544 24 6.30161 24.3951 5.59835 25.0983C4.89509 25.8016 4.5 26.7554 4.5 27.75C4.5 28.7446 4.89509 29.6984 5.59835 30.4017C6.30161 31.1049 7.25544 31.5 8.25 31.5V31.5ZM27.75 12C28.7446 12 29.6984 11.6049 30.4017 10.9017C31.1049 10.1984 31.5 9.24456 31.5 8.25C31.5 7.25544 31.1049 6.30161 30.4017 5.59835C29.6984 4.89509 28.7446 4.5 27.75 4.5C26.7554 4.5 25.8016 4.89509 25.0983 5.59835C24.3951 6.30161 24 7.25544 24 8.25C24 9.24456 24.3951 10.1984 25.0983 10.9017C25.8016 11.6049 26.7554 12 27.75 12Z" stroke="#6CE4C7" stroke-width="2" stroke-linecap="round" stroke-linejoin="round"/>
</svg>
